<?xml version="1.0" encoding="utf-8" standalone="no"?>
<!DOCTYPE svg PUBLIC "-//W3C//DTD SVG 1.1//EN"
  "http://www.w3.org/Graphics/SVG/1.1/DTD/svg11.dtd">
<!-- Created with matplotlib (https://matplotlib.org/) -->
<svg height="288pt" version="1.1" viewBox="0 0 432 288" width="432pt" xmlns="http://www.w3.org/2000/svg" xmlns:xlink="http://www.w3.org/1999/xlink">
 <defs>
  <style type="text/css">
*{stroke-linecap:butt;stroke-linejoin:round;}
  </style>
 </defs>
 <g id="figure_1">
  <g id="patch_1">
   <path d="M 0 288 
L 432 288 
L 432 0 
L 0 0 
z
" style="fill:#ffffff;"/>
  </g>
  <g id="axes_1">
   <g id="patch_2">
    <path d="M 54 252 
L 388.8 252 
L 388.8 34.56 
L 54 34.56 
z
" style="fill:#ffffff;"/>
   </g>
   <g id="matplotlib.axis_1">
    <g id="xtick_1">
     <g id="line2d_1">
      <defs>
       <path d="M 0 0 
L 0 3.5 
" id="m47abfb4c24" style="stroke:#000000;stroke-width:0.8;"/>
      </defs>
      <g>
       <use style="stroke:#000000;stroke-width:0.8;" x="54" xlink:href="#m47abfb4c24" y="252"/>
      </g>
     </g>
     <g id="text_1">
      <!-- 20 -->
      <defs>
       <path d="M 19.1875 8.296875 
L 53.609375 8.296875 
L 53.609375 0 
L 7.328125 0 
L 7.328125 8.296875 
Q 12.9375 14.109375 22.625 23.890625 
Q 32.328125 33.6875 34.8125 36.53125 
Q 39.546875 41.84375 41.421875 45.53125 
Q 43.3125 49.21875 43.3125 52.78125 
Q 43.3125 58.59375 39.234375 62.25 
Q 35.15625 65.921875 28.609375 65.921875 
Q 23.96875 65.921875 18.8125 64.3125 
Q 13.671875 62.703125 7.8125 59.421875 
L 7.8125 69.390625 
Q 13.765625 71.78125 18.9375 73 
Q 24.125 74.21875 28.421875 74.21875 
Q 39.75 74.21875 46.484375 68.546875 
Q 53.21875 62.890625 53.21875 53.421875 
Q 53.21875 48.921875 51.53125 44.890625 
Q 49.859375 40.875 45.40625 35.40625 
Q 44.1875 33.984375 37.640625 27.21875 
Q 31.109375 20.453125 19.1875 8.296875 
z
" id="DejaVuSans-50"/>
       <path d="M 31.78125 66.40625 
Q 24.171875 66.40625 20.328125 58.90625 
Q 16.5 51.421875 16.5 36.375 
Q 16.5 21.390625 20.328125 13.890625 
Q 24.171875 6.390625 31.78125 6.390625 
Q 39.453125 6.390625 43.28125 13.890625 
Q 47.125 21.390625 47.125 36.375 
Q 47.125 51.421875 43.28125 58.90625 
Q 39.453125 66.40625 31.78125 66.40625 
z
M 31.78125 74.21875 
Q 44.046875 74.21875 50.515625 64.515625 
Q 56.984375 54.828125 56.984375 36.375 
Q 56.984375 17.96875 50.515625 8.265625 
Q 44.046875 -1.421875 31.78125 -1.421875 
Q 19.53125 -1.421875 13.0625 8.265625 
Q 6.59375 17.96875 6.59375 36.375 
Q 6.59375 54.828125 13.0625 64.515625 
Q 19.53125 74.21875 31.78125 74.21875 
z
" id="DejaVuSans-48"/>
      </defs>
      <g transform="translate(47.6375 266.598437)scale(0.1 -0.1)">
       <use xlink:href="#DejaVuSans-50"/>
       <use x="63.623047" xlink:href="#DejaVuSans-48"/>
      </g>
     </g>
    </g>
    <g id="xtick_2">
     <g id="line2d_2">
      <g>
       <use style="stroke:#000000;stroke-width:0.8;" x="95.85" xlink:href="#m47abfb4c24" y="252"/>
      </g>
     </g>
     <g id="text_2">
      <!-- 30 -->
      <defs>
       <path d="M 40.578125 39.3125 
Q 47.65625 37.796875 51.625 33 
Q 55.609375 28.21875 55.609375 21.1875 
Q 55.609375 10.40625 48.1875 4.484375 
Q 40.765625 -1.421875 27.09375 -1.421875 
Q 22.515625 -1.421875 17.65625 -0.515625 
Q 12.796875 0.390625 7.625 2.203125 
L 7.625 11.71875 
Q 11.71875 9.328125 16.59375 8.109375 
Q 21.484375 6.890625 26.8125 6.890625 
Q 36.078125 6.890625 40.9375 10.546875 
Q 45.796875 14.203125 45.796875 21.1875 
Q 45.796875 27.640625 41.28125 31.265625 
Q 36.765625 34.90625 28.71875 34.90625 
L 20.21875 34.90625 
L 20.21875 43.015625 
L 29.109375 43.015625 
Q 36.375 43.015625 40.234375 45.921875 
Q 44.09375 48.828125 44.09375 54.296875 
Q 44.09375 59.90625 40.109375 62.90625 
Q 36.140625 65.921875 28.71875 65.921875 
Q 24.65625 65.921875 20.015625 65.03125 
Q 15.375 64.15625 9.8125 62.3125 
L 9.8125 71.09375 
Q 15.4375 72.65625 20.34375 73.4375 
Q 25.25 74.21875 29.59375 74.21875 
Q 40.828125 74.21875 47.359375 69.109375 
Q 53.90625 64.015625 53.90625 55.328125 
Q 53.90625 49.265625 50.4375 45.09375 
Q 46.96875 40.921875 40.578125 39.3125 
z
" id="DejaVuSans-51"/>
      </defs>
      <g transform="translate(89.4875 266.598437)scale(0.1 -0.1)">
       <use xlink:href="#DejaVuSans-51"/>
       <use x="63.623047" xlink:href="#DejaVuSans-48"/>
      </g>
     </g>
    </g>
    <g id="xtick_3">
     <g id="line2d_3">
      <g>
       <use style="stroke:#000000;stroke-width:0.8;" x="137.7" xlink:href="#m47abfb4c24" y="252"/>
      </g>
     </g>
     <g id="text_3">
      <!-- 40 -->
      <defs>
       <path d="M 37.796875 64.3125 
L 12.890625 25.390625 
L 37.796875 25.390625 
z
M 35.203125 72.90625 
L 47.609375 72.90625 
L 47.609375 25.390625 
L 58.015625 25.390625 
L 58.015625 17.1875 
L 47.609375 17.1875 
L 47.609375 0 
L 37.796875 0 
L 37.796875 17.1875 
L 4.890625 17.1875 
L 4.890625 26.703125 
z
" id="DejaVuSans-52"/>
      </defs>
      <g transform="translate(131.3375 266.598437)scale(0.1 -0.1)">
       <use xlink:href="#DejaVuSans-52"/>
       <use x="63.623047" xlink:href="#DejaVuSans-48"/>
      </g>
     </g>
    </g>
    <g id="xtick_4">
     <g id="line2d_4">
      <g>
       <use style="stroke:#000000;stroke-width:0.8;" x="179.55" xlink:href="#m47abfb4c24" y="252"/>
      </g>
     </g>
     <g id="text_4">
      <!-- 50 -->
      <defs>
       <path d="M 10.796875 72.90625 
L 49.515625 72.90625 
L 49.515625 64.59375 
L 19.828125 64.59375 
L 19.828125 46.734375 
Q 21.96875 47.46875 24.109375 47.828125 
Q 26.265625 48.1875 28.421875 48.1875 
Q 40.625 48.1875 47.75 41.5 
Q 54.890625 34.8125 54.890625 23.390625 
Q 54.890625 11.625 47.5625 5.09375 
Q 40.234375 -1.421875 26.90625 -1.421875 
Q 22.3125 -1.421875 17.546875 -0.640625 
Q 12.796875 0.140625 7.71875 1.703125 
L 7.71875 11.625 
Q 12.109375 9.234375 16.796875 8.0625 
Q 21.484375 6.890625 26.703125 6.890625 
Q 35.15625 6.890625 40.078125 11.328125 
Q 45.015625 15.765625 45.015625 23.390625 
Q 45.015625 31 40.078125 35.4375 
Q 35.15625 39.890625 26.703125 39.890625 
Q 22.75 39.890625 18.8125 39.015625 
Q 14.890625 38.140625 10.796875 36.28125 
z
" id="DejaVuSans-53"/>
      </defs>
      <g transform="translate(173.1875 266.598437)scale(0.1 -0.1)">
       <use xlink:href="#DejaVuSans-53"/>
       <use x="63.623047" xlink:href="#DejaVuSans-48"/>
      </g>
     </g>
    </g>
    <g id="xtick_5">
     <g id="line2d_5">
      <g>
       <use style="stroke:#000000;stroke-width:0.8;" x="221.4" xlink:href="#m47abfb4c24" y="252"/>
      </g>
     </g>
     <g id="text_5">
      <!-- 60 -->
      <defs>
       <path d="M 33.015625 40.375 
Q 26.375 40.375 22.484375 35.828125 
Q 18.609375 31.296875 18.609375 23.390625 
Q 18.609375 15.53125 22.484375 10.953125 
Q 26.375 6.390625 33.015625 6.390625 
Q 39.65625 6.390625 43.53125 10.953125 
Q 47.40625 15.53125 47.40625 23.390625 
Q 47.40625 31.296875 43.53125 35.828125 
Q 39.65625 40.375 33.015625 40.375 
z
M 52.59375 71.296875 
L 52.59375 62.3125 
Q 48.875 64.0625 45.09375 64.984375 
Q 41.3125 65.921875 37.59375 65.921875 
Q 27.828125 65.921875 22.671875 59.328125 
Q 17.53125 52.734375 16.796875 39.40625 
Q 19.671875 43.65625 24.015625 45.921875 
Q 28.375 48.1875 33.59375 48.1875 
Q 44.578125 48.1875 50.953125 41.515625 
Q 57.328125 34.859375 57.328125 23.390625 
Q 57.328125 12.15625 50.6875 5.359375 
Q 44.046875 -1.421875 33.015625 -1.421875 
Q 20.359375 -1.421875 13.671875 8.265625 
Q 6.984375 17.96875 6.984375 36.375 
Q 6.984375 53.65625 15.1875 63.9375 
Q 23.390625 74.21875 37.203125 74.21875 
Q 40.921875 74.21875 44.703125 73.484375 
Q 48.484375 72.75 52.59375 71.296875 
z
" id="DejaVuSans-54"/>
      </defs>
      <g transform="translate(215.0375 266.598437)scale(0.1 -0.1)">
       <use xlink:href="#DejaVuSans-54"/>
       <use x="63.623047" xlink:href="#DejaVuSans-48"/>
      </g>
     </g>
    </g>
    <g id="xtick_6">
     <g id="line2d_6">
      <g>
       <use style="stroke:#000000;stroke-width:0.8;" x="263.25" xlink:href="#m47abfb4c24" y="252"/>
      </g>
     </g>
     <g id="text_6">
      <!-- 70 -->
      <defs>
       <path d="M 8.203125 72.90625 
L 55.078125 72.90625 
L 55.078125 68.703125 
L 28.609375 0 
L 18.3125 0 
L 43.21875 64.59375 
L 8.203125 64.59375 
z
" id="DejaVuSans-55"/>
      </defs>
      <g transform="translate(256.8875 266.598437)scale(0.1 -0.1)">
       <use xlink:href="#DejaVuSans-55"/>
       <use x="63.623047" xlink:href="#DejaVuSans-48"/>
      </g>
     </g>
    </g>
    <g id="xtick_7">
     <g id="line2d_7">
      <g>
       <use style="stroke:#000000;stroke-width:0.8;" x="305.1" xlink:href="#m47abfb4c24" y="252"/>
      </g>
     </g>
     <g id="text_7">
      <!-- 80 -->
      <defs>
       <path d="M 31.78125 34.625 
Q 24.75 34.625 20.71875 30.859375 
Q 16.703125 27.09375 16.703125 20.515625 
Q 16.703125 13.921875 20.71875 10.15625 
Q 24.75 6.390625 31.78125 6.390625 
Q 38.8125 6.390625 42.859375 10.171875 
Q 46.921875 13.96875 46.921875 20.515625 
Q 46.921875 27.09375 42.890625 30.859375 
Q 38.875 34.625 31.78125 34.625 
z
M 21.921875 38.8125 
Q 15.578125 40.375 12.03125 44.71875 
Q 8.5 49.078125 8.5 55.328125 
Q 8.5 64.0625 14.71875 69.140625 
Q 20.953125 74.21875 31.78125 74.21875 
Q 42.671875 74.21875 48.875 69.140625 
Q 55.078125 64.0625 55.078125 55.328125 
Q 55.078125 49.078125 51.53125 44.71875 
Q 48 40.375 41.703125 38.8125 
Q 48.828125 37.15625 52.796875 32.3125 
Q 56.78125 27.484375 56.78125 20.515625 
Q 56.78125 9.90625 50.3125 4.234375 
Q 43.84375 -1.421875 31.78125 -1.421875 
Q 19.734375 -1.421875 13.25 4.234375 
Q 6.78125 9.90625 6.78125 20.515625 
Q 6.78125 27.484375 10.78125 32.3125 
Q 14.796875 37.15625 21.921875 38.8125 
z
M 18.3125 54.390625 
Q 18.3125 48.734375 21.84375 45.5625 
Q 25.390625 42.390625 31.78125 42.390625 
Q 38.140625 42.390625 41.71875 45.5625 
Q 45.3125 48.734375 45.3125 54.390625 
Q 45.3125 60.0625 41.71875 63.234375 
Q 38.140625 66.40625 31.78125 66.40625 
Q 25.390625 66.40625 21.84375 63.234375 
Q 18.3125 60.0625 18.3125 54.390625 
z
" id="DejaVuSans-56"/>
      </defs>
      <g transform="translate(298.7375 266.598437)scale(0.1 -0.1)">
       <use xlink:href="#DejaVuSans-56"/>
       <use x="63.623047" xlink:href="#DejaVuSans-48"/>
      </g>
     </g>
    </g>
    <g id="xtick_8">
     <g id="line2d_8">
      <g>
       <use style="stroke:#000000;stroke-width:0.8;" x="346.95" xlink:href="#m47abfb4c24" y="252"/>
      </g>
     </g>
     <g id="text_8">
      <!-- 90 -->
      <defs>
       <path d="M 10.984375 1.515625 
L 10.984375 10.5 
Q 14.703125 8.734375 18.5 7.8125 
Q 22.3125 6.890625 25.984375 6.890625 
Q 35.75 6.890625 40.890625 13.453125 
Q 46.046875 20.015625 46.78125 33.40625 
Q 43.953125 29.203125 39.59375 26.953125 
Q 35.25 24.703125 29.984375 24.703125 
Q 19.046875 24.703125 12.671875 31.3125 
Q 6.296875 37.9375 6.296875 49.421875 
Q 6.296875 60.640625 12.9375 67.421875 
Q 19.578125 74.21875 30.609375 74.21875 
Q 43.265625 74.21875 49.921875 64.515625 
Q 56.59375 54.828125 56.59375 36.375 
Q 56.59375 19.140625 48.40625 8.859375 
Q 40.234375 -1.421875 26.421875 -1.421875 
Q 22.703125 -1.421875 18.890625 -0.6875 
Q 15.09375 0.046875 10.984375 1.515625 
z
M 30.609375 32.421875 
Q 37.25 32.421875 41.125 36.953125 
Q 45.015625 41.5 45.015625 49.421875 
Q 45.015625 57.28125 41.125 61.84375 
Q 37.25 66.40625 30.609375 66.40625 
Q 23.96875 66.40625 20.09375 61.84375 
Q 16.21875 57.28125 16.21875 49.421875 
Q 16.21875 41.5 20.09375 36.953125 
Q 23.96875 32.421875 30.609375 32.421875 
z
" id="DejaVuSans-57"/>
      </defs>
      <g transform="translate(340.5875 266.598437)scale(0.1 -0.1)">
       <use xlink:href="#DejaVuSans-57"/>
       <use x="63.623047" xlink:href="#DejaVuSans-48"/>
      </g>
     </g>
    </g>
    <g id="xtick_9">
     <g id="line2d_9">
      <g>
       <use style="stroke:#000000;stroke-width:0.8;" x="388.8" xlink:href="#m47abfb4c24" y="252"/>
      </g>
     </g>
     <g id="text_9">
      <!-- 100 -->
      <defs>
       <path d="M 12.40625 8.296875 
L 28.515625 8.296875 
L 28.515625 63.921875 
L 10.984375 60.40625 
L 10.984375 69.390625 
L 28.421875 72.90625 
L 38.28125 72.90625 
L 38.28125 8.296875 
L 54.390625 8.296875 
L 54.390625 0 
L 12.40625 0 
z
" id="DejaVuSans-49"/>
      </defs>
      <g transform="translate(379.25625 266.598437)scale(0.1 -0.1)">
       <use xlink:href="#DejaVuSans-49"/>
       <use x="63.623047" xlink:href="#DejaVuSans-48"/>
       <use x="127.246094" xlink:href="#DejaVuSans-48"/>
      </g>
     </g>
    </g>
    <g id="text_10">
     <!-- Feuchte -->
     <defs>
      <path d="M 9.8125 72.90625 
L 51.703125 72.90625 
L 51.703125 64.59375 
L 19.671875 64.59375 
L 19.671875 43.109375 
L 48.578125 43.109375 
L 48.578125 34.8125 
L 19.671875 34.8125 
L 19.671875 0 
L 9.8125 0 
z
" id="DejaVuSans-70"/>
      <path d="M 56.203125 29.59375 
L 56.203125 25.203125 
L 14.890625 25.203125 
Q 15.484375 15.921875 20.484375 11.0625 
Q 25.484375 6.203125 34.421875 6.203125 
Q 39.59375 6.203125 44.453125 7.46875 
Q 49.3125 8.734375 54.109375 11.28125 
L 54.109375 2.78125 
Q 49.265625 0.734375 44.1875 -0.34375 
Q 39.109375 -1.421875 33.890625 -1.421875 
Q 20.796875 -1.421875 13.15625 6.1875 
Q 5.515625 13.8125 5.515625 26.8125 
Q 5.515625 40.234375 12.765625 48.109375 
Q 20.015625 56 32.328125 56 
Q 43.359375 56 49.78125 48.890625 
Q 56.203125 41.796875 56.203125 29.59375 
z
M 47.21875 32.234375 
Q 47.125 39.59375 43.09375 43.984375 
Q 39.0625 48.390625 32.421875 48.390625 
Q 24.90625 48.390625 20.390625 44.140625 
Q 15.875 39.890625 15.1875 32.171875 
z
" id="DejaVuSans-101"/>
      <path d="M 8.5 21.578125 
L 8.5 54.6875 
L 17.484375 54.6875 
L 17.484375 21.921875 
Q 17.484375 14.15625 20.5 10.265625 
Q 23.53125 6.390625 29.59375 6.390625 
Q 36.859375 6.390625 41.078125 11.03125 
Q 45.3125 15.671875 45.3125 23.6875 
L 45.3125 54.6875 
L 54.296875 54.6875 
L 54.296875 0 
L 45.3125 0 
L 45.3125 8.40625 
Q 42.046875 3.421875 37.71875 1 
Q 33.40625 -1.421875 27.6875 -1.421875 
Q 18.265625 -1.421875 13.375 4.4375 
Q 8.5 10.296875 8.5 21.578125 
z
M 31.109375 56 
z
" id="DejaVuSans-117"/>
      <path d="M 48.78125 52.59375 
L 48.78125 44.1875 
Q 44.96875 46.296875 41.140625 47.34375 
Q 37.3125 48.390625 33.40625 48.390625 
Q 24.65625 48.390625 19.8125 42.84375 
Q 14.984375 37.3125 14.984375 27.296875 
Q 14.984375 17.28125 19.8125 11.734375 
Q 24.65625 6.203125 33.40625 6.203125 
Q 37.3125 6.203125 41.140625 7.25 
Q 44.96875 8.296875 48.78125 10.40625 
L 48.78125 2.09375 
Q 45.015625 0.34375 40.984375 -0.53125 
Q 36.96875 -1.421875 32.421875 -1.421875 
Q 20.0625 -1.421875 12.78125 6.34375 
Q 5.515625 14.109375 5.515625 27.296875 
Q 5.515625 40.671875 12.859375 48.328125 
Q 20.21875 56 33.015625 56 
Q 37.15625 56 41.109375 55.140625 
Q 45.0625 54.296875 48.78125 52.59375 
z
" id="DejaVuSans-99"/>
      <path d="M 54.890625 33.015625 
L 54.890625 0 
L 45.90625 0 
L 45.90625 32.71875 
Q 45.90625 40.484375 42.875 44.328125 
Q 39.84375 48.1875 33.796875 48.1875 
Q 26.515625 48.1875 22.3125 43.546875 
Q 18.109375 38.921875 18.109375 30.90625 
L 18.109375 0 
L 9.078125 0 
L 9.078125 75.984375 
L 18.109375 75.984375 
L 18.109375 46.1875 
Q 21.34375 51.125 25.703125 53.5625 
Q 30.078125 56 35.796875 56 
Q 45.21875 56 50.046875 50.171875 
Q 54.890625 44.34375 54.890625 33.015625 
z
" id="DejaVuSans-104"/>
      <path d="M 18.3125 70.21875 
L 18.3125 54.6875 
L 36.8125 54.6875 
L 36.8125 47.703125 
L 18.3125 47.703125 
L 18.3125 18.015625 
Q 18.3125 11.328125 20.140625 9.421875 
Q 21.96875 7.515625 27.59375 7.515625 
L 36.8125 7.515625 
L 36.8125 0 
L 27.59375 0 
Q 17.1875 0 13.234375 3.875 
Q 9.28125 7.765625 9.28125 18.015625 
L 9.28125 47.703125 
L 2.6875 47.703125 
L 2.6875 54.6875 
L 9.28125 54.6875 
L 9.28125 70.21875 
z
" id="DejaVuSans-116"/>
     </defs>
     <g transform="translate(201.328125 280.276563)scale(0.1 -0.1)">
      <use xlink:href="#DejaVuSans-70"/>
      <use x="57.441406" xlink:href="#DejaVuSans-101"/>
      <use x="118.964844" xlink:href="#DejaVuSans-117"/>
      <use x="182.34375" xlink:href="#DejaVuSans-99"/>
      <use x="237.324219" xlink:href="#DejaVuSans-104"/>
      <use x="300.703125" xlink:href="#DejaVuSans-116"/>
      <use x="339.912109" xlink:href="#DejaVuSans-101"/>
     </g>
    </g>
   </g>
   <g id="matplotlib.axis_2">
    <g id="ytick_1">
     <g id="line2d_10">
      <defs>
       <path d="M 0 0 
L -3.5 0 
" id="m06030d0ea6" style="stroke:#000000;stroke-width:0.8;"/>
      </defs>
      <g>
       <use style="stroke:#000000;stroke-width:0.8;" x="54" xlink:href="#m06030d0ea6" y="227.330505"/>
      </g>
     </g>
     <g id="text_11">
      <!-- 0 -->
      <g transform="translate(40.6375 231.129724)scale(0.1 -0.1)">
       <use xlink:href="#DejaVuSans-48"/>
      </g>
     </g>
    </g>
    <g id="ytick_2">
     <g id="line2d_11">
      <g>
       <use style="stroke:#000000;stroke-width:0.8;" x="54" xlink:href="#m06030d0ea6" y="198.58196"/>
      </g>
     </g>
     <g id="text_12">
      <!-- 10 -->
      <g transform="translate(34.275 202.381178)scale(0.1 -0.1)">
       <use xlink:href="#DejaVuSans-49"/>
       <use x="63.623047" xlink:href="#DejaVuSans-48"/>
      </g>
     </g>
    </g>
    <g id="ytick_3">
     <g id="line2d_12">
      <g>
       <use style="stroke:#000000;stroke-width:0.8;" x="54" xlink:href="#m06030d0ea6" y="169.833414"/>
      </g>
     </g>
     <g id="text_13">
      <!-- 20 -->
      <g transform="translate(34.275 173.632633)scale(0.1 -0.1)">
       <use xlink:href="#DejaVuSans-50"/>
       <use x="63.623047" xlink:href="#DejaVuSans-48"/>
      </g>
     </g>
    </g>
    <g id="ytick_4">
     <g id="line2d_13">
      <g>
       <use style="stroke:#000000;stroke-width:0.8;" x="54" xlink:href="#m06030d0ea6" y="141.084868"/>
      </g>
     </g>
     <g id="text_14">
      <!-- 30 -->
      <g transform="translate(34.275 144.884087)scale(0.1 -0.1)">
       <use xlink:href="#DejaVuSans-51"/>
       <use x="63.623047" xlink:href="#DejaVuSans-48"/>
      </g>
     </g>
    </g>
    <g id="ytick_5">
     <g id="line2d_14">
      <g>
       <use style="stroke:#000000;stroke-width:0.8;" x="54" xlink:href="#m06030d0ea6" y="112.336322"/>
      </g>
     </g>
     <g id="text_15">
      <!-- 40 -->
      <g transform="translate(34.275 116.135541)scale(0.1 -0.1)">
       <use xlink:href="#DejaVuSans-52"/>
       <use x="63.623047" xlink:href="#DejaVuSans-48"/>
      </g>
     </g>
    </g>
    <g id="ytick_6">
     <g id="line2d_15">
      <g>
       <use style="stroke:#000000;stroke-width:0.8;" x="54" xlink:href="#m06030d0ea6" y="83.587777"/>
      </g>
     </g>
     <g id="text_16">
      <!-- 50 -->
      <g transform="translate(34.275 87.386995)scale(0.1 -0.1)">
       <use xlink:href="#DejaVuSans-53"/>
       <use x="63.623047" xlink:href="#DejaVuSans-48"/>
      </g>
     </g>
    </g>
    <g id="ytick_7">
     <g id="line2d_16">
      <g>
       <use style="stroke:#000000;stroke-width:0.8;" x="54" xlink:href="#m06030d0ea6" y="54.839231"/>
      </g>
     </g>
     <g id="text_17">
      <!-- 60 -->
      <g transform="translate(34.275 58.63845)scale(0.1 -0.1)">
       <use xlink:href="#DejaVuSans-54"/>
       <use x="63.623047" xlink:href="#DejaVuSans-48"/>
      </g>
     </g>
    </g>
    <g id="text_18">
     <!-- PM10 -->
     <defs>
      <path d="M 19.671875 64.796875 
L 19.671875 37.40625 
L 32.078125 37.40625 
Q 38.96875 37.40625 42.71875 40.96875 
Q 46.484375 44.53125 46.484375 51.125 
Q 46.484375 57.671875 42.71875 61.234375 
Q 38.96875 64.796875 32.078125 64.796875 
z
M 9.8125 72.90625 
L 32.078125 72.90625 
Q 44.34375 72.90625 50.609375 67.359375 
Q 56.890625 61.8125 56.890625 51.125 
Q 56.890625 40.328125 50.609375 34.8125 
Q 44.34375 29.296875 32.078125 29.296875 
L 19.671875 29.296875 
L 19.671875 0 
L 9.8125 0 
z
" id="DejaVuSans-80"/>
      <path d="M 9.8125 72.90625 
L 24.515625 72.90625 
L 43.109375 23.296875 
L 61.8125 72.90625 
L 76.515625 72.90625 
L 76.515625 0 
L 66.890625 0 
L 66.890625 64.015625 
L 48.09375 14.015625 
L 38.1875 14.015625 
L 19.390625 64.015625 
L 19.390625 0 
L 9.8125 0 
z
" id="DejaVuSans-77"/>
     </defs>
     <g transform="translate(28.195312 156.971406)rotate(-90)scale(0.1 -0.1)">
      <use xlink:href="#DejaVuSans-80"/>
      <use x="60.302734" xlink:href="#DejaVuSans-77"/>
      <use x="146.582031" xlink:href="#DejaVuSans-49"/>
      <use x="210.205078" xlink:href="#DejaVuSans-48"/>
     </g>
    </g>
   </g>
   <g id="line2d_17">
    <path clip-path="url(#pc86a7ebd56)" d="M -1 227.481396 
L 66.555 227.481396 
L 67.392 224.106417 
L 74.925 224.106417 
L 75.762 220.53176 
L 79.947 220.53176 
L 80.784 221.221021 
L 84.132 221.221021 
L 84.969 219.654779 
L 87.48 219.654779 
L 88.317 217.972116 
L 90.828 217.972116 
L 91.665 215.733144 
L 93.339 215.733144 
L 94.176 214.999611 
L 95.85 214.999611 
L 96.687 220.834384 
L 99.198 220.834384 
L 100.035 223.966183 
L 101.709 223.966183 
L 102.546 220.583621 
L 104.22 220.583621 
L 105.057 219.019721 
L 106.731 219.019721 
L 107.568 219.283727 
L 108.405 219.283727 
L 109.242 216.930228 
L 110.916 216.930228 
L 111.753 212.079291 
L 112.59 212.079291 
L 113.427 213.049243 
L 115.101 213.049243 
L 115.938 213.69946 
L 117.612 213.69946 
L 118.449 211.502251 
L 119.286 211.502251 
L 120.123 211.781669 
L 120.96 211.781669 
L 121.797 213.673623 
L 122.634 213.673623 
L 123.471 212.111638 
L 124.308 212.111638 
L 125.145 215.669196 
L 125.982 215.669196 
L 126.819 214.630997 
L 127.656 214.630997 
L 128.493 212.226944 
L 129.33 212.226944 
L 130.167 209.251588 
L 131.004 209.251588 
L 131.841 199.386506 
L 132.678 199.386506 
L 133.515 198.534057 
L 134.352 198.534057 
L 135.189 204.457494 
L 136.026 204.457494 
L 136.863 205.753653 
L 137.7 205.753653 
L 138.537 199.348419 
L 139.374 199.348419 
L 140.211 204.754033 
L 141.048 204.754033 
L 141.885 195.725863 
L 142.722 195.725863 
L 143.559 192.716037 
L 144.396 192.716037 
L 145.233 185.867463 
L 146.07 185.867463 
L 146.907 193.807825 
L 147.744 193.406348 
L 148.581 193.406348 
L 149.418 188.55976 
L 150.255 188.55976 
L 151.092 183.441814 
L 151.929 183.441814 
L 152.766 184.496614 
L 153.603 184.496614 
L 154.44 185.312147 
L 155.277 179.341538 
L 156.114 179.341538 
L 156.951 180.083158 
L 157.788 180.083158 
L 158.625 186.542278 
L 159.462 186.542278 
L 160.299 183.048319 
L 161.136 183.32208 
L 161.973 184.296232 
L 162.81 184.296232 
L 163.647 183.777063 
L 164.484 183.777063 
L 165.321 185.472142 
L 166.995 185.44668 
L 167.832 183.626772 
L 168.669 183.626772 
L 169.506 186.53468 
L 170.343 186.53468 
L 171.18 186.365361 
L 172.017 186.365361 
L 172.854 184.892118 
L 173.691 184.892118 
L 174.528 187.489068 
L 175.365 186.349198 
L 176.202 186.349198 
L 177.039 185.847317 
L 177.876 185.847317 
L 178.713 183.70771 
L 179.55 183.70771 
L 180.387 186.079298 
L 181.224 186.203969 
L 182.061 188.192489 
L 182.898 188.192489 
L 183.735 191.332205 
L 184.572 191.332205 
L 185.409 192.513716 
L 186.246 192.847277 
L 187.083 192.847277 
L 187.92 193.386731 
L 188.757 193.386731 
L 189.594 191.100241 
L 190.431 191.085494 
L 191.268 191.95074 
L 192.105 191.95074 
L 192.942 192.476693 
L 193.779 192.476693 
L 194.616 193.048748 
L 195.453 193.455995 
L 196.29 193.455995 
L 197.127 193.133831 
L 197.964 190.888944 
L 198.801 190.888944 
L 199.638 188.012611 
L 200.475 187.766018 
L 201.312 187.766018 
L 202.149 180.430773 
L 202.986 180.430773 
L 203.823 187.156441 
L 204.66 187.156441 
L 205.497 187.471781 
L 206.334 191.504153 
L 207.171 191.504153 
L 208.008 194.391263 
L 208.845 194.564386 
L 209.682 194.564386 
L 210.519 193.097754 
L 211.356 193.933907 
L 212.193 187.223988 
L 213.03 187.223988 
L 213.867 192.515248 
L 214.704 192.856699 
L 215.541 192.856699 
L 216.378 192.280121 
L 217.215 190.943426 
L 218.052 190.943426 
L 218.889 191.787848 
L 219.726 192.15538 
L 220.563 192.15538 
L 221.4 197.247806 
L 222.237 197.289693 
L 223.074 195.497408 
L 223.911 195.497408 
L 224.748 192.561138 
L 225.585 196.47847 
L 226.422 196.96171 
L 227.259 196.96171 
L 228.096 205.705399 
L 228.933 206.200028 
L 229.77 206.200028 
L 230.607 204.583813 
L 231.444 204.938059 
L 232.281 204.938059 
L 233.118 198.981418 
L 233.955 203.795316 
L 234.792 201.400805 
L 235.629 201.881947 
L 236.466 201.881947 
L 237.303 198.875538 
L 238.14 202.959633 
L 238.977 201.861204 
L 239.814 202.062548 
L 240.651 201.614451 
L 241.488 201.614451 
L 242.325 201.420145 
L 243.162 203.634637 
L 243.999 203.476948 
L 244.836 203.476948 
L 245.673 202.871255 
L 246.51 202.705149 
L 247.347 202.267563 
L 248.184 202.267563 
L 249.021 202.624646 
L 249.858 202.624646 
L 250.695 199.932708 
L 251.532 198.520264 
L 252.369 200.376098 
L 253.206 197.713469 
L 254.043 197.713469 
L 254.88 198.809041 
L 255.717 193.143301 
L 256.554 193.278667 
L 257.391 194.987351 
L 258.228 195.578049 
L 259.065 195.578049 
L 259.902 197.088434 
L 260.739 198.041953 
L 261.576 201.082757 
L 262.413 200.081429 
L 263.25 198.02402 
L 264.087 192.758948 
L 264.924 192.567483 
L 265.761 195.896394 
L 267.435 196.328704 
L 268.272 197.806487 
L 269.109 197.806487 
L 269.946 197.965113 
L 270.783 198.758412 
L 271.62 197.973569 
L 272.457 196.602013 
L 273.294 193.491295 
L 274.131 192.27461 
L 274.968 192.548115 
L 275.805 189.054242 
L 276.642 188.725667 
L 277.479 189.872949 
L 278.316 190.368342 
L 279.153 191.804004 
L 279.99 195.142961 
L 280.827 197.90117 
L 281.664 198.173066 
L 282.501 199.085354 
L 283.338 198.376458 
L 284.175 200.605223 
L 285.012 200.205469 
L 285.849 202.656139 
L 287.523 201.355723 
L 289.197 200.921621 
L 290.034 200.98752 
L 290.871 201.839467 
L 292.545 201.806767 
L 293.382 200.906802 
L 294.219 195.316319 
L 295.056 190.552802 
L 295.893 189.501591 
L 296.73 189.501591 
L 297.567 190.26868 
L 299.241 189.393847 
L 300.078 191.308429 
L 300.915 192.151253 
L 301.752 191.589005 
L 302.589 192.945582 
L 303.426 190.168989 
L 304.263 190.104578 
L 305.1 192.350271 
L 305.937 194.919178 
L 306.774 195.60384 
L 307.611 194.859617 
L 308.448 192.642716 
L 309.285 192.642716 
L 310.122 192.430078 
L 310.959 192.430078 
L 312.633 194.507362 
L 313.47 191.351393 
L 314.307 191.484591 
L 315.144 191.855645 
L 315.981 192.040713 
L 316.818 192.637984 
L 318.492 192.534834 
L 320.166 192.107284 
L 321.003 192.776219 
L 321.84 194.144006 
L 322.677 197.254798 
L 323.514 198.08359 
L 324.351 193.246131 
L 325.188 186.047584 
L 326.025 186.745624 
L 327.699 191.365278 
L 328.536 195.286456 
L 329.373 198.374929 
L 330.21 198.374929 
L 331.047 197.533548 
L 331.884 197.605032 
L 332.721 199.198653 
L 333.558 196.883708 
L 334.395 195.101367 
L 335.232 195.938255 
L 336.069 195.952553 
L 336.906 196.13901 
L 338.58 203.014159 
L 339.417 198.21205 
L 340.254 199.029551 
L 341.091 211.384014 
L 341.928 219.761916 
L 342.765 242.116364 
L 343.602 237.893489 
L 344.439 229.473067 
L 345.276 201.445615 
L 346.113 219.119774 
L 346.95 219.119774 
L 347.787 225.400512 
L 348.624 214.554541 
L 349.461 214.554541 
L 350.298 92.47502 
L 351.135 201.182823 
L 351.972 197.667876 
L 352.809 197.667876 
L 353.646 162.045323 
L 354.483 44.443636 
L 355.32 159.69999 
L 356.994 159.69999 
L 357.831 182.557699 
L 358.668 182.557699 
L 359.505 147.408213 
L 360.342 147.408213 
L 361.179 153.438381 
L 429.813 153.438381 
L 429.813 153.438381 
" style="fill:none;stroke:#0000ff;stroke-linecap:square;stroke-width:1.5;"/>
   </g>
   <g id="line2d_18">
    <path clip-path="url(#pc86a7ebd56)" d="M -1 227.481396 
L 3.78 227.481396 
L 12.15 227.481396 
L 20.52 227.481396 
L 28.89 227.481396 
L 37.26 227.481396 
L 45.63 227.481396 
L 54 227.481396 
L 62.37 227.481396 
L 70.74 224.106417 
L 79.11 220.53176 
L 87.48 219.654779 
L 95.85 214.999611 
L 104.22 220.583621 
L 112.59 212.079291 
L 120.96 211.781669 
L 129.33 212.226944 
L 137.7 205.753653 
L 146.07 185.867463 
L 154.44 185.312147 
L 162.81 184.296232 
L 171.18 186.365361 
L 179.55 183.70771 
L 187.92 193.386731 
L 196.29 193.455995 
L 204.66 187.156441 
L 213.03 187.223988 
L 221.4 197.247806 
L 229.77 206.200028 
L 238.14 202.959633 
L 246.51 202.705149 
L 254.88 198.809041 
L 263.25 198.02402 
L 271.62 197.973569 
L 279.99 195.142961 
L 288.36 201.134064 
L 296.73 189.501591 
L 305.1 192.350271 
L 313.47 191.351393 
L 321.84 194.144006 
L 330.21 198.374929 
L 338.58 203.014159 
L 346.95 219.119774 
L 355.32 159.69999 
L 363.69 153.438381 
L 372.06 153.438381 
L 380.43 153.438381 
L 388.8 153.438381 
L 397.17 153.438381 
L 405.54 153.438381 
L 413.91 153.438381 
L 422.28 153.438381 
" style="fill:none;stroke:#ff0000;stroke-linecap:square;stroke-width:1.5;"/>
   </g>
   <g id="patch_3">
    <path d="M 54 252 
L 54 34.56 
" style="fill:none;stroke:#000000;stroke-linecap:square;stroke-linejoin:miter;stroke-width:0.8;"/>
   </g>
   <g id="patch_4">
    <path d="M 388.8 252 
L 388.8 34.56 
" style="fill:none;stroke:#000000;stroke-linecap:square;stroke-linejoin:miter;stroke-width:0.8;"/>
   </g>
   <g id="patch_5">
    <path d="M 54 252 
L 388.8 252 
" style="fill:none;stroke:#000000;stroke-linecap:square;stroke-linejoin:miter;stroke-width:0.8;"/>
   </g>
   <g id="patch_6">
    <path d="M 54 34.56 
L 388.8 34.56 
" style="fill:none;stroke:#000000;stroke-linecap:square;stroke-linejoin:miter;stroke-width:0.8;"/>
   </g>
   <g id="legend_1">
    <g id="patch_7">
     <path d="M 61 71.91625 
L 204.885938 71.91625 
Q 206.885938 71.91625 206.885938 69.91625 
L 206.885938 41.56 
Q 206.885938 39.56 204.885938 39.56 
L 61 39.56 
Q 59 39.56 59 41.56 
L 59 69.91625 
Q 59 71.91625 61 71.91625 
z
" style="fill:#ffffff;opacity:0.8;stroke:#cccccc;stroke-linejoin:miter;"/>
    </g>
    <g id="line2d_19">
     <path d="M 63 47.658437 
L 83 47.658437 
" style="fill:none;stroke:#0000ff;stroke-linecap:square;stroke-width:1.5;"/>
    </g>
    <g id="line2d_20"/>
    <g id="text_19">
     <!-- Feuchte/PM10 10x ext -->
     <defs>
      <path d="M 25.390625 72.90625 
L 33.6875 72.90625 
L 8.296875 -9.28125 
L 0 -9.28125 
z
" id="DejaVuSans-47"/>
      <path id="DejaVuSans-32"/>
      <path d="M 54.890625 54.6875 
L 35.109375 28.078125 
L 55.90625 0 
L 45.3125 0 
L 29.390625 21.484375 
L 13.484375 0 
L 2.875 0 
L 24.125 28.609375 
L 4.6875 54.6875 
L 15.28125 54.6875 
L 29.78125 35.203125 
L 44.28125 54.6875 
z
" id="DejaVuSans-120"/>
     </defs>
     <g transform="translate(91 51.158437)scale(0.1 -0.1)">
      <use xlink:href="#DejaVuSans-70"/>
      <use x="57.441406" xlink:href="#DejaVuSans-101"/>
      <use x="118.964844" xlink:href="#DejaVuSans-117"/>
      <use x="182.34375" xlink:href="#DejaVuSans-99"/>
      <use x="237.324219" xlink:href="#DejaVuSans-104"/>
      <use x="300.703125" xlink:href="#DejaVuSans-116"/>
      <use x="339.912109" xlink:href="#DejaVuSans-101"/>
      <use x="401.435547" xlink:href="#DejaVuSans-47"/>
      <use x="435.126953" xlink:href="#DejaVuSans-80"/>
      <use x="495.429688" xlink:href="#DejaVuSans-77"/>
      <use x="581.708984" xlink:href="#DejaVuSans-49"/>
      <use x="645.332031" xlink:href="#DejaVuSans-48"/>
      <use x="708.955078" xlink:href="#DejaVuSans-32"/>
      <use x="740.742188" xlink:href="#DejaVuSans-49"/>
      <use x="804.365234" xlink:href="#DejaVuSans-48"/>
      <use x="867.988281" xlink:href="#DejaVuSans-120"/>
      <use x="927.167969" xlink:href="#DejaVuSans-32"/>
      <use x="958.955078" xlink:href="#DejaVuSans-101"/>
      <use x="1020.462891" xlink:href="#DejaVuSans-120"/>
      <use x="1079.642578" xlink:href="#DejaVuSans-116"/>
     </g>
    </g>
    <g id="line2d_21">
     <path d="M 63 62.336562 
L 83 62.336562 
" style="fill:none;stroke:#ff0000;stroke-linecap:square;stroke-width:1.5;"/>
    </g>
    <g id="line2d_22"/>
    <g id="text_20">
     <!-- Feuchte/PM10 -->
     <g transform="translate(91 65.836562)scale(0.1 -0.1)">
      <use xlink:href="#DejaVuSans-70"/>
      <use x="57.441406" xlink:href="#DejaVuSans-101"/>
      <use x="118.964844" xlink:href="#DejaVuSans-117"/>
      <use x="182.34375" xlink:href="#DejaVuSans-99"/>
      <use x="237.324219" xlink:href="#DejaVuSans-104"/>
      <use x="300.703125" xlink:href="#DejaVuSans-116"/>
      <use x="339.912109" xlink:href="#DejaVuSans-101"/>
      <use x="401.435547" xlink:href="#DejaVuSans-47"/>
      <use x="435.126953" xlink:href="#DejaVuSans-80"/>
      <use x="495.429688" xlink:href="#DejaVuSans-77"/>
      <use x="581.708984" xlink:href="#DejaVuSans-49"/>
      <use x="645.332031" xlink:href="#DejaVuSans-48"/>
     </g>
    </g>
   </g>
  </g>
 </g>
 <defs>
  <clipPath id="pc86a7ebd56">
   <rect height="217.44" width="334.8" x="54" y="34.56"/>
  </clipPath>
 </defs>
</svg>
