<?xml version="1.0" encoding="utf-8" standalone="no"?>
<!DOCTYPE svg PUBLIC "-//W3C//DTD SVG 1.1//EN"
  "http://www.w3.org/Graphics/SVG/1.1/DTD/svg11.dtd">
<!-- Created with matplotlib (https://matplotlib.org/) -->
<svg height="288pt" version="1.1" viewBox="0 0 432 288" width="432pt" xmlns="http://www.w3.org/2000/svg" xmlns:xlink="http://www.w3.org/1999/xlink">
 <defs>
  <style type="text/css">
*{stroke-linecap:butt;stroke-linejoin:round;}
  </style>
 </defs>
 <g id="figure_1">
  <g id="patch_1">
   <path d="M 0 288 
L 432 288 
L 432 0 
L 0 0 
z
" style="fill:#ffffff;"/>
  </g>
  <g id="axes_1">
   <g id="patch_2">
    <path d="M 54 252 
L 388.8 252 
L 388.8 34.56 
L 54 34.56 
z
" style="fill:#ffffff;"/>
   </g>
   <g id="matplotlib.axis_1">
    <g id="xtick_1">
     <g id="line2d_1">
      <defs>
       <path d="M 0 0 
L 0 3.5 
" id="m35bdecc889" style="stroke:#000000;stroke-width:0.8;"/>
      </defs>
      <g>
       <use style="stroke:#000000;stroke-width:0.8;" x="54" xlink:href="#m35bdecc889" y="252"/>
      </g>
     </g>
     <g id="text_1">
      <!-- 0 -->
      <defs>
       <path d="M 31.78125 66.40625 
Q 24.171875 66.40625 20.328125 58.90625 
Q 16.5 51.421875 16.5 36.375 
Q 16.5 21.390625 20.328125 13.890625 
Q 24.171875 6.390625 31.78125 6.390625 
Q 39.453125 6.390625 43.28125 13.890625 
Q 47.125 21.390625 47.125 36.375 
Q 47.125 51.421875 43.28125 58.90625 
Q 39.453125 66.40625 31.78125 66.40625 
z
M 31.78125 74.21875 
Q 44.046875 74.21875 50.515625 64.515625 
Q 56.984375 54.828125 56.984375 36.375 
Q 56.984375 17.96875 50.515625 8.265625 
Q 44.046875 -1.421875 31.78125 -1.421875 
Q 19.53125 -1.421875 13.0625 8.265625 
Q 6.59375 17.96875 6.59375 36.375 
Q 6.59375 54.828125 13.0625 64.515625 
Q 19.53125 74.21875 31.78125 74.21875 
z
" id="DejaVuSans-48"/>
      </defs>
      <g transform="translate(50.81875 266.598437)scale(0.1 -0.1)">
       <use xlink:href="#DejaVuSans-48"/>
      </g>
     </g>
    </g>
    <g id="xtick_2">
     <g id="line2d_2">
      <g>
       <use style="stroke:#000000;stroke-width:0.8;" x="109.8" xlink:href="#m35bdecc889" y="252"/>
      </g>
     </g>
     <g id="text_2">
      <!-- 1 -->
      <defs>
       <path d="M 12.40625 8.296875 
L 28.515625 8.296875 
L 28.515625 63.921875 
L 10.984375 60.40625 
L 10.984375 69.390625 
L 28.421875 72.90625 
L 38.28125 72.90625 
L 38.28125 8.296875 
L 54.390625 8.296875 
L 54.390625 0 
L 12.40625 0 
z
" id="DejaVuSans-49"/>
      </defs>
      <g transform="translate(106.61875 266.598437)scale(0.1 -0.1)">
       <use xlink:href="#DejaVuSans-49"/>
      </g>
     </g>
    </g>
    <g id="xtick_3">
     <g id="line2d_3">
      <g>
       <use style="stroke:#000000;stroke-width:0.8;" x="165.6" xlink:href="#m35bdecc889" y="252"/>
      </g>
     </g>
     <g id="text_3">
      <!-- 2 -->
      <defs>
       <path d="M 19.1875 8.296875 
L 53.609375 8.296875 
L 53.609375 0 
L 7.328125 0 
L 7.328125 8.296875 
Q 12.9375 14.109375 22.625 23.890625 
Q 32.328125 33.6875 34.8125 36.53125 
Q 39.546875 41.84375 41.421875 45.53125 
Q 43.3125 49.21875 43.3125 52.78125 
Q 43.3125 58.59375 39.234375 62.25 
Q 35.15625 65.921875 28.609375 65.921875 
Q 23.96875 65.921875 18.8125 64.3125 
Q 13.671875 62.703125 7.8125 59.421875 
L 7.8125 69.390625 
Q 13.765625 71.78125 18.9375 73 
Q 24.125 74.21875 28.421875 74.21875 
Q 39.75 74.21875 46.484375 68.546875 
Q 53.21875 62.890625 53.21875 53.421875 
Q 53.21875 48.921875 51.53125 44.890625 
Q 49.859375 40.875 45.40625 35.40625 
Q 44.1875 33.984375 37.640625 27.21875 
Q 31.109375 20.453125 19.1875 8.296875 
z
" id="DejaVuSans-50"/>
      </defs>
      <g transform="translate(162.41875 266.598437)scale(0.1 -0.1)">
       <use xlink:href="#DejaVuSans-50"/>
      </g>
     </g>
    </g>
    <g id="xtick_4">
     <g id="line2d_4">
      <g>
       <use style="stroke:#000000;stroke-width:0.8;" x="221.4" xlink:href="#m35bdecc889" y="252"/>
      </g>
     </g>
     <g id="text_4">
      <!-- 3 -->
      <defs>
       <path d="M 40.578125 39.3125 
Q 47.65625 37.796875 51.625 33 
Q 55.609375 28.21875 55.609375 21.1875 
Q 55.609375 10.40625 48.1875 4.484375 
Q 40.765625 -1.421875 27.09375 -1.421875 
Q 22.515625 -1.421875 17.65625 -0.515625 
Q 12.796875 0.390625 7.625 2.203125 
L 7.625 11.71875 
Q 11.71875 9.328125 16.59375 8.109375 
Q 21.484375 6.890625 26.8125 6.890625 
Q 36.078125 6.890625 40.9375 10.546875 
Q 45.796875 14.203125 45.796875 21.1875 
Q 45.796875 27.640625 41.28125 31.265625 
Q 36.765625 34.90625 28.71875 34.90625 
L 20.21875 34.90625 
L 20.21875 43.015625 
L 29.109375 43.015625 
Q 36.375 43.015625 40.234375 45.921875 
Q 44.09375 48.828125 44.09375 54.296875 
Q 44.09375 59.90625 40.109375 62.90625 
Q 36.140625 65.921875 28.71875 65.921875 
Q 24.65625 65.921875 20.015625 65.03125 
Q 15.375 64.15625 9.8125 62.3125 
L 9.8125 71.09375 
Q 15.4375 72.65625 20.34375 73.4375 
Q 25.25 74.21875 29.59375 74.21875 
Q 40.828125 74.21875 47.359375 69.109375 
Q 53.90625 64.015625 53.90625 55.328125 
Q 53.90625 49.265625 50.4375 45.09375 
Q 46.96875 40.921875 40.578125 39.3125 
z
" id="DejaVuSans-51"/>
      </defs>
      <g transform="translate(218.21875 266.598437)scale(0.1 -0.1)">
       <use xlink:href="#DejaVuSans-51"/>
      </g>
     </g>
    </g>
    <g id="xtick_5">
     <g id="line2d_5">
      <g>
       <use style="stroke:#000000;stroke-width:0.8;" x="277.2" xlink:href="#m35bdecc889" y="252"/>
      </g>
     </g>
     <g id="text_5">
      <!-- 4 -->
      <defs>
       <path d="M 37.796875 64.3125 
L 12.890625 25.390625 
L 37.796875 25.390625 
z
M 35.203125 72.90625 
L 47.609375 72.90625 
L 47.609375 25.390625 
L 58.015625 25.390625 
L 58.015625 17.1875 
L 47.609375 17.1875 
L 47.609375 0 
L 37.796875 0 
L 37.796875 17.1875 
L 4.890625 17.1875 
L 4.890625 26.703125 
z
" id="DejaVuSans-52"/>
      </defs>
      <g transform="translate(274.01875 266.598437)scale(0.1 -0.1)">
       <use xlink:href="#DejaVuSans-52"/>
      </g>
     </g>
    </g>
    <g id="xtick_6">
     <g id="line2d_6">
      <g>
       <use style="stroke:#000000;stroke-width:0.8;" x="333" xlink:href="#m35bdecc889" y="252"/>
      </g>
     </g>
     <g id="text_6">
      <!-- 5 -->
      <defs>
       <path d="M 10.796875 72.90625 
L 49.515625 72.90625 
L 49.515625 64.59375 
L 19.828125 64.59375 
L 19.828125 46.734375 
Q 21.96875 47.46875 24.109375 47.828125 
Q 26.265625 48.1875 28.421875 48.1875 
Q 40.625 48.1875 47.75 41.5 
Q 54.890625 34.8125 54.890625 23.390625 
Q 54.890625 11.625 47.5625 5.09375 
Q 40.234375 -1.421875 26.90625 -1.421875 
Q 22.3125 -1.421875 17.546875 -0.640625 
Q 12.796875 0.140625 7.71875 1.703125 
L 7.71875 11.625 
Q 12.109375 9.234375 16.796875 8.0625 
Q 21.484375 6.890625 26.703125 6.890625 
Q 35.15625 6.890625 40.078125 11.328125 
Q 45.015625 15.765625 45.015625 23.390625 
Q 45.015625 31 40.078125 35.4375 
Q 35.15625 39.890625 26.703125 39.890625 
Q 22.75 39.890625 18.8125 39.015625 
Q 14.890625 38.140625 10.796875 36.28125 
z
" id="DejaVuSans-53"/>
      </defs>
      <g transform="translate(329.81875 266.598437)scale(0.1 -0.1)">
       <use xlink:href="#DejaVuSans-53"/>
      </g>
     </g>
    </g>
    <g id="xtick_7">
     <g id="line2d_7">
      <g>
       <use style="stroke:#000000;stroke-width:0.8;" x="388.8" xlink:href="#m35bdecc889" y="252"/>
      </g>
     </g>
     <g id="text_7">
      <!-- 6 -->
      <defs>
       <path d="M 33.015625 40.375 
Q 26.375 40.375 22.484375 35.828125 
Q 18.609375 31.296875 18.609375 23.390625 
Q 18.609375 15.53125 22.484375 10.953125 
Q 26.375 6.390625 33.015625 6.390625 
Q 39.65625 6.390625 43.53125 10.953125 
Q 47.40625 15.53125 47.40625 23.390625 
Q 47.40625 31.296875 43.53125 35.828125 
Q 39.65625 40.375 33.015625 40.375 
z
M 52.59375 71.296875 
L 52.59375 62.3125 
Q 48.875 64.0625 45.09375 64.984375 
Q 41.3125 65.921875 37.59375 65.921875 
Q 27.828125 65.921875 22.671875 59.328125 
Q 17.53125 52.734375 16.796875 39.40625 
Q 19.671875 43.65625 24.015625 45.921875 
Q 28.375 48.1875 33.59375 48.1875 
Q 44.578125 48.1875 50.953125 41.515625 
Q 57.328125 34.859375 57.328125 23.390625 
Q 57.328125 12.15625 50.6875 5.359375 
Q 44.046875 -1.421875 33.015625 -1.421875 
Q 20.359375 -1.421875 13.671875 8.265625 
Q 6.984375 17.96875 6.984375 36.375 
Q 6.984375 53.65625 15.1875 63.9375 
Q 23.390625 74.21875 37.203125 74.21875 
Q 40.921875 74.21875 44.703125 73.484375 
Q 48.484375 72.75 52.59375 71.296875 
z
" id="DejaVuSans-54"/>
      </defs>
      <g transform="translate(385.61875 266.598437)scale(0.1 -0.1)">
       <use xlink:href="#DejaVuSans-54"/>
      </g>
     </g>
    </g>
    <g id="text_8">
     <!-- Windgeschwindigkeit -->
     <defs>
      <path d="M 3.328125 72.90625 
L 13.28125 72.90625 
L 28.609375 11.28125 
L 43.890625 72.90625 
L 54.984375 72.90625 
L 70.3125 11.28125 
L 85.59375 72.90625 
L 95.609375 72.90625 
L 77.296875 0 
L 64.890625 0 
L 49.515625 63.28125 
L 33.984375 0 
L 21.578125 0 
z
" id="DejaVuSans-87"/>
      <path d="M 9.421875 54.6875 
L 18.40625 54.6875 
L 18.40625 0 
L 9.421875 0 
z
M 9.421875 75.984375 
L 18.40625 75.984375 
L 18.40625 64.59375 
L 9.421875 64.59375 
z
" id="DejaVuSans-105"/>
      <path d="M 54.890625 33.015625 
L 54.890625 0 
L 45.90625 0 
L 45.90625 32.71875 
Q 45.90625 40.484375 42.875 44.328125 
Q 39.84375 48.1875 33.796875 48.1875 
Q 26.515625 48.1875 22.3125 43.546875 
Q 18.109375 38.921875 18.109375 30.90625 
L 18.109375 0 
L 9.078125 0 
L 9.078125 54.6875 
L 18.109375 54.6875 
L 18.109375 46.1875 
Q 21.34375 51.125 25.703125 53.5625 
Q 30.078125 56 35.796875 56 
Q 45.21875 56 50.046875 50.171875 
Q 54.890625 44.34375 54.890625 33.015625 
z
" id="DejaVuSans-110"/>
      <path d="M 45.40625 46.390625 
L 45.40625 75.984375 
L 54.390625 75.984375 
L 54.390625 0 
L 45.40625 0 
L 45.40625 8.203125 
Q 42.578125 3.328125 38.25 0.953125 
Q 33.9375 -1.421875 27.875 -1.421875 
Q 17.96875 -1.421875 11.734375 6.484375 
Q 5.515625 14.40625 5.515625 27.296875 
Q 5.515625 40.1875 11.734375 48.09375 
Q 17.96875 56 27.875 56 
Q 33.9375 56 38.25 53.625 
Q 42.578125 51.265625 45.40625 46.390625 
z
M 14.796875 27.296875 
Q 14.796875 17.390625 18.875 11.75 
Q 22.953125 6.109375 30.078125 6.109375 
Q 37.203125 6.109375 41.296875 11.75 
Q 45.40625 17.390625 45.40625 27.296875 
Q 45.40625 37.203125 41.296875 42.84375 
Q 37.203125 48.484375 30.078125 48.484375 
Q 22.953125 48.484375 18.875 42.84375 
Q 14.796875 37.203125 14.796875 27.296875 
z
" id="DejaVuSans-100"/>
      <path d="M 45.40625 27.984375 
Q 45.40625 37.75 41.375 43.109375 
Q 37.359375 48.484375 30.078125 48.484375 
Q 22.859375 48.484375 18.828125 43.109375 
Q 14.796875 37.75 14.796875 27.984375 
Q 14.796875 18.265625 18.828125 12.890625 
Q 22.859375 7.515625 30.078125 7.515625 
Q 37.359375 7.515625 41.375 12.890625 
Q 45.40625 18.265625 45.40625 27.984375 
z
M 54.390625 6.78125 
Q 54.390625 -7.171875 48.1875 -13.984375 
Q 42 -20.796875 29.203125 -20.796875 
Q 24.46875 -20.796875 20.265625 -20.09375 
Q 16.0625 -19.390625 12.109375 -17.921875 
L 12.109375 -9.1875 
Q 16.0625 -11.328125 19.921875 -12.34375 
Q 23.78125 -13.375 27.78125 -13.375 
Q 36.625 -13.375 41.015625 -8.765625 
Q 45.40625 -4.15625 45.40625 5.171875 
L 45.40625 9.625 
Q 42.625 4.78125 38.28125 2.390625 
Q 33.9375 0 27.875 0 
Q 17.828125 0 11.671875 7.65625 
Q 5.515625 15.328125 5.515625 27.984375 
Q 5.515625 40.671875 11.671875 48.328125 
Q 17.828125 56 27.875 56 
Q 33.9375 56 38.28125 53.609375 
Q 42.625 51.21875 45.40625 46.390625 
L 45.40625 54.6875 
L 54.390625 54.6875 
z
" id="DejaVuSans-103"/>
      <path d="M 56.203125 29.59375 
L 56.203125 25.203125 
L 14.890625 25.203125 
Q 15.484375 15.921875 20.484375 11.0625 
Q 25.484375 6.203125 34.421875 6.203125 
Q 39.59375 6.203125 44.453125 7.46875 
Q 49.3125 8.734375 54.109375 11.28125 
L 54.109375 2.78125 
Q 49.265625 0.734375 44.1875 -0.34375 
Q 39.109375 -1.421875 33.890625 -1.421875 
Q 20.796875 -1.421875 13.15625 6.1875 
Q 5.515625 13.8125 5.515625 26.8125 
Q 5.515625 40.234375 12.765625 48.109375 
Q 20.015625 56 32.328125 56 
Q 43.359375 56 49.78125 48.890625 
Q 56.203125 41.796875 56.203125 29.59375 
z
M 47.21875 32.234375 
Q 47.125 39.59375 43.09375 43.984375 
Q 39.0625 48.390625 32.421875 48.390625 
Q 24.90625 48.390625 20.390625 44.140625 
Q 15.875 39.890625 15.1875 32.171875 
z
" id="DejaVuSans-101"/>
      <path d="M 44.28125 53.078125 
L 44.28125 44.578125 
Q 40.484375 46.53125 36.375 47.5 
Q 32.28125 48.484375 27.875 48.484375 
Q 21.1875 48.484375 17.84375 46.4375 
Q 14.5 44.390625 14.5 40.28125 
Q 14.5 37.15625 16.890625 35.375 
Q 19.28125 33.59375 26.515625 31.984375 
L 29.59375 31.296875 
Q 39.15625 29.25 43.1875 25.515625 
Q 47.21875 21.78125 47.21875 15.09375 
Q 47.21875 7.46875 41.1875 3.015625 
Q 35.15625 -1.421875 24.609375 -1.421875 
Q 20.21875 -1.421875 15.453125 -0.5625 
Q 10.6875 0.296875 5.421875 2 
L 5.421875 11.28125 
Q 10.40625 8.6875 15.234375 7.390625 
Q 20.0625 6.109375 24.8125 6.109375 
Q 31.15625 6.109375 34.5625 8.28125 
Q 37.984375 10.453125 37.984375 14.40625 
Q 37.984375 18.0625 35.515625 20.015625 
Q 33.0625 21.96875 24.703125 23.78125 
L 21.578125 24.515625 
Q 13.234375 26.265625 9.515625 29.90625 
Q 5.8125 33.546875 5.8125 39.890625 
Q 5.8125 47.609375 11.28125 51.796875 
Q 16.75 56 26.8125 56 
Q 31.78125 56 36.171875 55.265625 
Q 40.578125 54.546875 44.28125 53.078125 
z
" id="DejaVuSans-115"/>
      <path d="M 48.78125 52.59375 
L 48.78125 44.1875 
Q 44.96875 46.296875 41.140625 47.34375 
Q 37.3125 48.390625 33.40625 48.390625 
Q 24.65625 48.390625 19.8125 42.84375 
Q 14.984375 37.3125 14.984375 27.296875 
Q 14.984375 17.28125 19.8125 11.734375 
Q 24.65625 6.203125 33.40625 6.203125 
Q 37.3125 6.203125 41.140625 7.25 
Q 44.96875 8.296875 48.78125 10.40625 
L 48.78125 2.09375 
Q 45.015625 0.34375 40.984375 -0.53125 
Q 36.96875 -1.421875 32.421875 -1.421875 
Q 20.0625 -1.421875 12.78125 6.34375 
Q 5.515625 14.109375 5.515625 27.296875 
Q 5.515625 40.671875 12.859375 48.328125 
Q 20.21875 56 33.015625 56 
Q 37.15625 56 41.109375 55.140625 
Q 45.0625 54.296875 48.78125 52.59375 
z
" id="DejaVuSans-99"/>
      <path d="M 54.890625 33.015625 
L 54.890625 0 
L 45.90625 0 
L 45.90625 32.71875 
Q 45.90625 40.484375 42.875 44.328125 
Q 39.84375 48.1875 33.796875 48.1875 
Q 26.515625 48.1875 22.3125 43.546875 
Q 18.109375 38.921875 18.109375 30.90625 
L 18.109375 0 
L 9.078125 0 
L 9.078125 75.984375 
L 18.109375 75.984375 
L 18.109375 46.1875 
Q 21.34375 51.125 25.703125 53.5625 
Q 30.078125 56 35.796875 56 
Q 45.21875 56 50.046875 50.171875 
Q 54.890625 44.34375 54.890625 33.015625 
z
" id="DejaVuSans-104"/>
      <path d="M 4.203125 54.6875 
L 13.1875 54.6875 
L 24.421875 12.015625 
L 35.59375 54.6875 
L 46.1875 54.6875 
L 57.421875 12.015625 
L 68.609375 54.6875 
L 77.59375 54.6875 
L 63.28125 0 
L 52.6875 0 
L 40.921875 44.828125 
L 29.109375 0 
L 18.5 0 
z
" id="DejaVuSans-119"/>
      <path d="M 9.078125 75.984375 
L 18.109375 75.984375 
L 18.109375 31.109375 
L 44.921875 54.6875 
L 56.390625 54.6875 
L 27.390625 29.109375 
L 57.625 0 
L 45.90625 0 
L 18.109375 26.703125 
L 18.109375 0 
L 9.078125 0 
z
" id="DejaVuSans-107"/>
      <path d="M 18.3125 70.21875 
L 18.3125 54.6875 
L 36.8125 54.6875 
L 36.8125 47.703125 
L 18.3125 47.703125 
L 18.3125 18.015625 
Q 18.3125 11.328125 20.140625 9.421875 
Q 21.96875 7.515625 27.59375 7.515625 
L 36.8125 7.515625 
L 36.8125 0 
L 27.59375 0 
Q 17.1875 0 13.234375 3.875 
Q 9.28125 7.765625 9.28125 18.015625 
L 9.28125 47.703125 
L 2.6875 47.703125 
L 2.6875 54.6875 
L 9.28125 54.6875 
L 9.28125 70.21875 
z
" id="DejaVuSans-116"/>
     </defs>
     <g transform="translate(168.249219 280.276563)scale(0.1 -0.1)">
      <use xlink:href="#DejaVuSans-87"/>
      <use x="98.845703" xlink:href="#DejaVuSans-105"/>
      <use x="126.628906" xlink:href="#DejaVuSans-110"/>
      <use x="190.007812" xlink:href="#DejaVuSans-100"/>
      <use x="253.484375" xlink:href="#DejaVuSans-103"/>
      <use x="316.960938" xlink:href="#DejaVuSans-101"/>
      <use x="378.484375" xlink:href="#DejaVuSans-115"/>
      <use x="430.583984" xlink:href="#DejaVuSans-99"/>
      <use x="485.564453" xlink:href="#DejaVuSans-104"/>
      <use x="548.943359" xlink:href="#DejaVuSans-119"/>
      <use x="630.730469" xlink:href="#DejaVuSans-105"/>
      <use x="658.513672" xlink:href="#DejaVuSans-110"/>
      <use x="721.892578" xlink:href="#DejaVuSans-100"/>
      <use x="785.369141" xlink:href="#DejaVuSans-105"/>
      <use x="813.152344" xlink:href="#DejaVuSans-103"/>
      <use x="876.628906" xlink:href="#DejaVuSans-107"/>
      <use x="934.492188" xlink:href="#DejaVuSans-101"/>
      <use x="996.015625" xlink:href="#DejaVuSans-105"/>
      <use x="1023.798828" xlink:href="#DejaVuSans-116"/>
     </g>
    </g>
   </g>
   <g id="matplotlib.axis_2">
    <g id="ytick_1">
     <g id="line2d_8">
      <defs>
       <path d="M 0 0 
L -3.5 0 
" id="m73d70ba681" style="stroke:#000000;stroke-width:0.8;"/>
      </defs>
      <g>
       <use style="stroke:#000000;stroke-width:0.8;" x="54" xlink:href="#m73d70ba681" y="233.666307"/>
      </g>
     </g>
     <g id="text_9">
      <!-- −4 -->
      <defs>
       <path d="M 10.59375 35.5 
L 73.1875 35.5 
L 73.1875 27.203125 
L 10.59375 27.203125 
z
" id="DejaVuSans-8722"/>
      </defs>
      <g transform="translate(32.257812 237.465525)scale(0.1 -0.1)">
       <use xlink:href="#DejaVuSans-8722"/>
       <use x="83.789062" xlink:href="#DejaVuSans-52"/>
      </g>
     </g>
    </g>
    <g id="ytick_2">
     <g id="line2d_9">
      <g>
       <use style="stroke:#000000;stroke-width:0.8;" x="54" xlink:href="#m73d70ba681" y="202.112458"/>
      </g>
     </g>
     <g id="text_10">
      <!-- −2 -->
      <g transform="translate(32.257812 205.911677)scale(0.1 -0.1)">
       <use xlink:href="#DejaVuSans-8722"/>
       <use x="83.789062" xlink:href="#DejaVuSans-50"/>
      </g>
     </g>
    </g>
    <g id="ytick_3">
     <g id="line2d_10">
      <g>
       <use style="stroke:#000000;stroke-width:0.8;" x="54" xlink:href="#m73d70ba681" y="170.55861"/>
      </g>
     </g>
     <g id="text_11">
      <!-- 0 -->
      <g transform="translate(40.6375 174.357828)scale(0.1 -0.1)">
       <use xlink:href="#DejaVuSans-48"/>
      </g>
     </g>
    </g>
    <g id="ytick_4">
     <g id="line2d_11">
      <g>
       <use style="stroke:#000000;stroke-width:0.8;" x="54" xlink:href="#m73d70ba681" y="139.004761"/>
      </g>
     </g>
     <g id="text_12">
      <!-- 2 -->
      <g transform="translate(40.6375 142.80398)scale(0.1 -0.1)">
       <use xlink:href="#DejaVuSans-50"/>
      </g>
     </g>
    </g>
    <g id="ytick_5">
     <g id="line2d_12">
      <g>
       <use style="stroke:#000000;stroke-width:0.8;" x="54" xlink:href="#m73d70ba681" y="107.450913"/>
      </g>
     </g>
     <g id="text_13">
      <!-- 4 -->
      <g transform="translate(40.6375 111.250131)scale(0.1 -0.1)">
       <use xlink:href="#DejaVuSans-52"/>
      </g>
     </g>
    </g>
    <g id="ytick_6">
     <g id="line2d_13">
      <g>
       <use style="stroke:#000000;stroke-width:0.8;" x="54" xlink:href="#m73d70ba681" y="75.897064"/>
      </g>
     </g>
     <g id="text_14">
      <!-- 6 -->
      <g transform="translate(40.6375 79.696283)scale(0.1 -0.1)">
       <use xlink:href="#DejaVuSans-54"/>
      </g>
     </g>
    </g>
    <g id="ytick_7">
     <g id="line2d_14">
      <g>
       <use style="stroke:#000000;stroke-width:0.8;" x="54" xlink:href="#m73d70ba681" y="44.343216"/>
      </g>
     </g>
     <g id="text_15">
      <!-- 8 -->
      <defs>
       <path d="M 31.78125 34.625 
Q 24.75 34.625 20.71875 30.859375 
Q 16.703125 27.09375 16.703125 20.515625 
Q 16.703125 13.921875 20.71875 10.15625 
Q 24.75 6.390625 31.78125 6.390625 
Q 38.8125 6.390625 42.859375 10.171875 
Q 46.921875 13.96875 46.921875 20.515625 
Q 46.921875 27.09375 42.890625 30.859375 
Q 38.875 34.625 31.78125 34.625 
z
M 21.921875 38.8125 
Q 15.578125 40.375 12.03125 44.71875 
Q 8.5 49.078125 8.5 55.328125 
Q 8.5 64.0625 14.71875 69.140625 
Q 20.953125 74.21875 31.78125 74.21875 
Q 42.671875 74.21875 48.875 69.140625 
Q 55.078125 64.0625 55.078125 55.328125 
Q 55.078125 49.078125 51.53125 44.71875 
Q 48 40.375 41.703125 38.8125 
Q 48.828125 37.15625 52.796875 32.3125 
Q 56.78125 27.484375 56.78125 20.515625 
Q 56.78125 9.90625 50.3125 4.234375 
Q 43.84375 -1.421875 31.78125 -1.421875 
Q 19.734375 -1.421875 13.25 4.234375 
Q 6.78125 9.90625 6.78125 20.515625 
Q 6.78125 27.484375 10.78125 32.3125 
Q 14.796875 37.15625 21.921875 38.8125 
z
M 18.3125 54.390625 
Q 18.3125 48.734375 21.84375 45.5625 
Q 25.390625 42.390625 31.78125 42.390625 
Q 38.140625 42.390625 41.71875 45.5625 
Q 45.3125 48.734375 45.3125 54.390625 
Q 45.3125 60.0625 41.71875 63.234375 
Q 38.140625 66.40625 31.78125 66.40625 
Q 25.390625 66.40625 21.84375 63.234375 
Q 18.3125 60.0625 18.3125 54.390625 
z
" id="DejaVuSans-56"/>
      </defs>
      <g transform="translate(40.6375 48.142434)scale(0.1 -0.1)">
       <use xlink:href="#DejaVuSans-56"/>
      </g>
     </g>
    </g>
    <g id="text_16">
     <!-- PM10 -->
     <defs>
      <path d="M 19.671875 64.796875 
L 19.671875 37.40625 
L 32.078125 37.40625 
Q 38.96875 37.40625 42.71875 40.96875 
Q 46.484375 44.53125 46.484375 51.125 
Q 46.484375 57.671875 42.71875 61.234375 
Q 38.96875 64.796875 32.078125 64.796875 
z
M 9.8125 72.90625 
L 32.078125 72.90625 
Q 44.34375 72.90625 50.609375 67.359375 
Q 56.890625 61.8125 56.890625 51.125 
Q 56.890625 40.328125 50.609375 34.8125 
Q 44.34375 29.296875 32.078125 29.296875 
L 19.671875 29.296875 
L 19.671875 0 
L 9.8125 0 
z
" id="DejaVuSans-80"/>
      <path d="M 9.8125 72.90625 
L 24.515625 72.90625 
L 43.109375 23.296875 
L 61.8125 72.90625 
L 76.515625 72.90625 
L 76.515625 0 
L 66.890625 0 
L 66.890625 64.015625 
L 48.09375 14.015625 
L 38.1875 14.015625 
L 19.390625 64.015625 
L 19.390625 0 
L 9.8125 0 
z
" id="DejaVuSans-77"/>
     </defs>
     <g transform="translate(26.178125 156.971406)rotate(-90)scale(0.1 -0.1)">
      <use xlink:href="#DejaVuSans-80"/>
      <use x="60.302734" xlink:href="#DejaVuSans-77"/>
      <use x="146.582031" xlink:href="#DejaVuSans-49"/>
      <use x="210.205078" xlink:href="#DejaVuSans-48"/>
     </g>
    </g>
   </g>
   <g id="line2d_15">
    <path clip-path="url(#p94315988cf)" d="M 54 114.405584 
L 70.74 114.405584 
L 71.298 132.022262 
L 76.32 132.022262 
L 76.878 75.894431 
L 81.9 75.894431 
L 82.458 74.102315 
L 83.574 74.102315 
L 84.132 104.398604 
L 85.806 104.398604 
L 86.364 99.236316 
L 88.038 99.2063 
L 88.596 139.080017 
L 90.27 139.080017 
L 90.828 98.926372 
L 91.944 98.926372 
L 92.502 81.53342 
L 93.06 71.463082 
L 93.618 112.965494 
L 94.176 112.965494 
L 94.734 101.856932 
L 95.85 101.856932 
L 96.408 103.306985 
L 96.966 103.306985 
L 97.524 114.36502 
L 98.64 114.36502 
L 99.198 159.709084 
L 100.314 159.709084 
L 100.872 178.100697 
L 101.43 178.100697 
L 101.988 195.688172 
L 102.546 195.688172 
L 103.104 189.042615 
L 103.662 189.042615 
L 104.22 189.537027 
L 104.778 172.384395 
L 105.336 172.384395 
L 105.894 165.907477 
L 106.452 165.907477 
L 107.01 167.163844 
L 107.568 160.772847 
L 108.126 160.772847 
L 108.684 163.988329 
L 109.242 163.988329 
L 109.8 134.020203 
L 110.358 156.774078 
L 110.916 224.043417 
L 111.474 224.043417 
L 112.032 242.116364 
L 112.59 224.54452 
L 113.148 224.54452 
L 113.706 218.13057 
L 114.264 166.942922 
L 114.822 166.942922 
L 115.938 153.307903 
L 116.496 162.412985 
L 117.054 167.193263 
L 117.612 169.538985 
L 118.17 169.538985 
L 118.728 152.946093 
L 119.286 167.033877 
L 119.844 167.033877 
L 120.402 173.516147 
L 120.96 164.940423 
L 122.076 197.501175 
L 122.634 121.176205 
L 123.192 169.54408 
L 123.75 168.815044 
L 124.308 194.813375 
L 124.866 194.813375 
L 125.424 220.325841 
L 125.982 215.598045 
L 126.54 224.364509 
L 127.098 218.666956 
L 127.656 218.027451 
L 128.214 221.692289 
L 128.772 215.097458 
L 129.33 234.740328 
L 129.888 211.765369 
L 130.446 221.725757 
L 131.004 212.409318 
L 131.562 196.426967 
L 132.12 190.543068 
L 132.678 190.543068 
L 133.236 187.013259 
L 133.794 187.013259 
L 134.352 197.441608 
L 134.91 168.587022 
L 135.468 173.204761 
L 136.026 194.869404 
L 136.584 196.713905 
L 137.142 182.213917 
L 137.7 185.550959 
L 138.258 183.705444 
L 138.816 170.721187 
L 139.374 202.476766 
L 139.932 158.145054 
L 140.49 159.717237 
L 141.048 160.940819 
L 141.606 143.237544 
L 142.164 144.465704 
L 142.722 144.340726 
L 143.28 141.011473 
L 143.838 147.926941 
L 144.396 143.556474 
L 144.954 146.881824 
L 145.512 143.241999 
L 146.07 146.03286 
L 147.186 160.781847 
L 147.744 158.224839 
L 148.302 157.094304 
L 148.86 150.635957 
L 149.418 176.447771 
L 149.976 186.515547 
L 150.534 186.515547 
L 151.092 183.101232 
L 151.65 186.874277 
L 152.208 158.781265 
L 152.766 162.265323 
L 153.324 164.398722 
L 153.882 179.647907 
L 154.44 201.516528 
L 155.556 172.961759 
L 156.114 150.592918 
L 156.672 143.495482 
L 157.23 149.254911 
L 157.788 150.10156 
L 158.346 148.213333 
L 158.904 148.213333 
L 159.462 151.462525 
L 160.02 143.453246 
L 160.578 156.798846 
L 162.252 97.235181 
L 162.81 97.235181 
L 163.368 97.561032 
L 163.926 91.047009 
L 164.484 93.550004 
L 165.042 84.345418 
L 165.6 66.54713 
L 166.158 64.239067 
L 166.716 69.765168 
L 167.274 72.099238 
L 167.832 50.451473 
L 168.39 50.451473 
L 168.948 44.443636 
L 169.506 71.872903 
L 170.064 73.57179 
L 170.622 91.013578 
L 171.18 91.013578 
L 171.738 109.076348 
L 172.296 113.213556 
L 172.854 113.213556 
L 173.412 110.97739 
L 173.97 124.404447 
L 174.528 127.838871 
L 175.086 127.838871 
L 175.644 136.754164 
L 176.202 134.291309 
L 176.76 134.291309 
L 177.318 133.801356 
L 177.876 133.801356 
L 178.434 128.402726 
L 178.992 134.261761 
L 179.55 134.261761 
L 180.108 132.852029 
L 180.666 132.852029 
L 181.224 132.190058 
L 181.782 128.180086 
L 182.34 128.770436 
L 182.898 128.770436 
L 183.456 133.473754 
L 184.014 132.42169 
L 184.572 132.42169 
L 185.13 137.729795 
L 185.688 137.729795 
L 186.246 135.635937 
L 186.804 129.580392 
L 187.362 129.580392 
L 187.92 146.857373 
L 188.478 141.848387 
L 189.036 144.490485 
L 189.594 142.100459 
L 190.152 142.100459 
L 190.71 140.539213 
L 191.268 140.539213 
L 191.826 149.644215 
L 192.384 149.644215 
L 192.942 162.444995 
L 193.5 162.444995 
L 194.058 142.821557 
L 194.616 142.821557 
L 195.174 142.353792 
L 196.29 142.353792 
L 196.848 142.768048 
L 197.406 142.768048 
L 197.964 136.18993 
L 198.522 136.18993 
L 199.638 137.747481 
L 200.196 137.747481 
L 200.754 140.969371 
L 201.312 140.969371 
L 201.87 138.985132 
L 202.428 138.985132 
L 202.986 142.00382 
L 204.102 142.00382 
L 204.66 129.099022 
L 205.218 120.003428 
L 205.776 120.003428 
L 206.334 123.421614 
L 207.45 123.421614 
L 208.008 122.074191 
L 209.124 122.074191 
L 209.682 120.136095 
L 210.24 120.667848 
L 210.798 120.667848 
L 211.356 121.510476 
L 212.472 121.510476 
L 213.03 120.024817 
L 214.704 120.024817 
L 215.262 131.788639 
L 215.82 131.788639 
L 216.378 125.11082 
L 217.494 125.11082 
L 218.052 129.255863 
L 219.168 129.255863 
L 219.726 127.33389 
L 220.842 127.33389 
L 221.4 123.029369 
L 221.958 123.029369 
L 222.516 110.067524 
L 224.19 110.067524 
L 224.748 104.432334 
L 226.422 104.432334 
L 226.98 110.21895 
L 227.538 110.21895 
L 228.096 106.954902 
L 229.77 106.954902 
L 230.328 109.455637 
L 232.56 109.455637 
L 233.118 120.230811 
L 234.234 120.230811 
L 234.792 119.799801 
L 237.024 119.799801 
L 237.582 117.760682 
L 238.698 117.760682 
L 239.256 106.737367 
L 242.046 106.737367 
L 242.604 138.778248 
L 243.72 138.778248 
L 244.278 138.588145 
L 247.068 138.588145 
L 247.626 134.263008 
L 249.3 134.263008 
L 249.858 127.80556 
L 252.648 127.80556 
L 253.206 125.808625 
L 255.996 125.808625 
L 256.554 126.434023 
L 263.25 126.434023 
L 263.808 125.978428 
L 267.714 125.978428 
L 268.272 126.932733 
L 271.62 126.932733 
L 272.178 126.108495 
L 277.2 126.108495 
L 277.758 133.211357 
L 282.78 133.211357 
L 283.338 129.196356 
L 288.36 129.196356 
L 288.918 131.02 
L 295.614 131.02 
L 296.172 136.818163 
L 303.984 136.818163 
L 304.542 112.40663 
L 312.912 112.40663 
L 313.47 121.490068 
L 326.304 121.490068 
L 326.862 126.364872 
L 341.928 126.364872 
L 342.486 109.483501 
L 369.27 109.483501 
L 369.828 102.887853 
L 433 102.887853 
L 433 102.887853 
" style="fill:none;stroke:#0000ff;stroke-linecap:square;stroke-width:1.5;"/>
   </g>
   <g id="line2d_16">
    <path clip-path="url(#p94315988cf)" d="M 54 114.405584 
L 59.58 114.405584 
L 65.16 114.405584 
L 70.74 132.022262 
L 76.32 132.022262 
L 81.9 75.894431 
L 87.48 99.2063 
L 93.06 71.463082 
L 98.64 114.36502 
L 104.22 189.537027 
L 109.8 134.020203 
L 115.38 160.319689 
L 120.96 182.089959 
L 126.54 224.364509 
L 132.12 190.543068 
L 137.7 185.550959 
L 143.28 141.011473 
L 148.86 163.496115 
L 154.44 201.516528 
L 160.02 143.453246 
L 165.6 66.54713 
L 171.18 91.013578 
L 176.76 134.291309 
L 182.34 128.770436 
L 187.92 141.848387 
L 193.5 162.444995 
L 199.08 136.896069 
L 204.66 129.099022 
L 210.24 120.667848 
L 215.82 125.11082 
L 221.4 123.029369 
L 226.98 110.21895 
L 232.56 109.455637 
L 238.14 117.760682 
L 243.72 138.778248 
L 249.3 134.263008 
L 254.88 125.808625 
L 260.46 126.434023 
L 266.04 125.978428 
L 271.62 126.932733 
L 277.2 126.108495 
L 282.78 129.196356 
L 288.36 129.196356 
L 293.94 131.02 
L 299.52 136.818163 
L 305.1 112.40663 
L 310.68 112.40663 
L 316.26 121.490068 
L 321.84 121.490068 
L 327.42 126.364872 
L 333 126.364872 
L 338.58 126.364872 
L 344.16 109.483501 
L 349.74 109.483501 
L 355.32 109.483501 
L 360.9 109.483501 
L 366.48 109.483501 
L 372.06 102.887853 
L 377.64 102.887853 
L 383.22 102.887853 
L 388.8 102.887853 
L 394.38 102.887853 
L 399.96 102.887853 
L 405.54 102.887853 
L 411.12 102.887853 
L 416.7 102.887853 
L 422.28 102.887853 
L 427.86 102.887853 
L 433 102.887853 
" style="fill:none;stroke:#ff0000;stroke-linecap:square;stroke-width:1.5;"/>
   </g>
   <g id="patch_3">
    <path d="M 54 252 
L 54 34.56 
" style="fill:none;stroke:#000000;stroke-linecap:square;stroke-linejoin:miter;stroke-width:0.8;"/>
   </g>
   <g id="patch_4">
    <path d="M 388.8 252 
L 388.8 34.56 
" style="fill:none;stroke:#000000;stroke-linecap:square;stroke-linejoin:miter;stroke-width:0.8;"/>
   </g>
   <g id="patch_5">
    <path d="M 54 252 
L 388.8 252 
" style="fill:none;stroke:#000000;stroke-linecap:square;stroke-linejoin:miter;stroke-width:0.8;"/>
   </g>
   <g id="patch_6">
    <path d="M 54 34.56 
L 388.8 34.56 
" style="fill:none;stroke:#000000;stroke-linecap:square;stroke-linejoin:miter;stroke-width:0.8;"/>
   </g>
   <g id="legend_1">
    <g id="patch_7">
     <path d="M 171.75625 71.91625 
L 381.8 71.91625 
Q 383.8 71.91625 383.8 69.91625 
L 383.8 41.56 
Q 383.8 39.56 381.8 39.56 
L 171.75625 39.56 
Q 169.75625 39.56 169.75625 41.56 
L 169.75625 69.91625 
Q 169.75625 71.91625 171.75625 71.91625 
z
" style="fill:#ffffff;opacity:0.8;stroke:#cccccc;stroke-linejoin:miter;"/>
    </g>
    <g id="line2d_17">
     <path d="M 173.75625 47.658437 
L 193.75625 47.658437 
" style="fill:none;stroke:#0000ff;stroke-linecap:square;stroke-width:1.5;"/>
    </g>
    <g id="line2d_18"/>
    <g id="text_17">
     <!-- Windgeschwindigkeit/PM10 10x ext -->
     <defs>
      <path d="M 25.390625 72.90625 
L 33.6875 72.90625 
L 8.296875 -9.28125 
L 0 -9.28125 
z
" id="DejaVuSans-47"/>
      <path id="DejaVuSans-32"/>
      <path d="M 54.890625 54.6875 
L 35.109375 28.078125 
L 55.90625 0 
L 45.3125 0 
L 29.390625 21.484375 
L 13.484375 0 
L 2.875 0 
L 24.125 28.609375 
L 4.6875 54.6875 
L 15.28125 54.6875 
L 29.78125 35.203125 
L 44.28125 54.6875 
z
" id="DejaVuSans-120"/>
     </defs>
     <g transform="translate(201.75625 51.158437)scale(0.1 -0.1)">
      <use xlink:href="#DejaVuSans-87"/>
      <use x="98.845703" xlink:href="#DejaVuSans-105"/>
      <use x="126.628906" xlink:href="#DejaVuSans-110"/>
      <use x="190.007812" xlink:href="#DejaVuSans-100"/>
      <use x="253.484375" xlink:href="#DejaVuSans-103"/>
      <use x="316.960938" xlink:href="#DejaVuSans-101"/>
      <use x="378.484375" xlink:href="#DejaVuSans-115"/>
      <use x="430.583984" xlink:href="#DejaVuSans-99"/>
      <use x="485.564453" xlink:href="#DejaVuSans-104"/>
      <use x="548.943359" xlink:href="#DejaVuSans-119"/>
      <use x="630.730469" xlink:href="#DejaVuSans-105"/>
      <use x="658.513672" xlink:href="#DejaVuSans-110"/>
      <use x="721.892578" xlink:href="#DejaVuSans-100"/>
      <use x="785.369141" xlink:href="#DejaVuSans-105"/>
      <use x="813.152344" xlink:href="#DejaVuSans-103"/>
      <use x="876.628906" xlink:href="#DejaVuSans-107"/>
      <use x="934.492188" xlink:href="#DejaVuSans-101"/>
      <use x="996.015625" xlink:href="#DejaVuSans-105"/>
      <use x="1023.798828" xlink:href="#DejaVuSans-116"/>
      <use x="1063.007812" xlink:href="#DejaVuSans-47"/>
      <use x="1096.699219" xlink:href="#DejaVuSans-80"/>
      <use x="1157.001953" xlink:href="#DejaVuSans-77"/>
      <use x="1243.28125" xlink:href="#DejaVuSans-49"/>
      <use x="1306.904297" xlink:href="#DejaVuSans-48"/>
      <use x="1370.527344" xlink:href="#DejaVuSans-32"/>
      <use x="1402.314453" xlink:href="#DejaVuSans-49"/>
      <use x="1465.9375" xlink:href="#DejaVuSans-48"/>
      <use x="1529.560547" xlink:href="#DejaVuSans-120"/>
      <use x="1588.740234" xlink:href="#DejaVuSans-32"/>
      <use x="1620.527344" xlink:href="#DejaVuSans-101"/>
      <use x="1682.035156" xlink:href="#DejaVuSans-120"/>
      <use x="1741.214844" xlink:href="#DejaVuSans-116"/>
     </g>
    </g>
    <g id="line2d_19">
     <path d="M 173.75625 62.336562 
L 193.75625 62.336562 
" style="fill:none;stroke:#ff0000;stroke-linecap:square;stroke-width:1.5;"/>
    </g>
    <g id="line2d_20"/>
    <g id="text_18">
     <!-- Windgeschwindigkeit/PM10 -->
     <g transform="translate(201.75625 65.836562)scale(0.1 -0.1)">
      <use xlink:href="#DejaVuSans-87"/>
      <use x="98.845703" xlink:href="#DejaVuSans-105"/>
      <use x="126.628906" xlink:href="#DejaVuSans-110"/>
      <use x="190.007812" xlink:href="#DejaVuSans-100"/>
      <use x="253.484375" xlink:href="#DejaVuSans-103"/>
      <use x="316.960938" xlink:href="#DejaVuSans-101"/>
      <use x="378.484375" xlink:href="#DejaVuSans-115"/>
      <use x="430.583984" xlink:href="#DejaVuSans-99"/>
      <use x="485.564453" xlink:href="#DejaVuSans-104"/>
      <use x="548.943359" xlink:href="#DejaVuSans-119"/>
      <use x="630.730469" xlink:href="#DejaVuSans-105"/>
      <use x="658.513672" xlink:href="#DejaVuSans-110"/>
      <use x="721.892578" xlink:href="#DejaVuSans-100"/>
      <use x="785.369141" xlink:href="#DejaVuSans-105"/>
      <use x="813.152344" xlink:href="#DejaVuSans-103"/>
      <use x="876.628906" xlink:href="#DejaVuSans-107"/>
      <use x="934.492188" xlink:href="#DejaVuSans-101"/>
      <use x="996.015625" xlink:href="#DejaVuSans-105"/>
      <use x="1023.798828" xlink:href="#DejaVuSans-116"/>
      <use x="1063.007812" xlink:href="#DejaVuSans-47"/>
      <use x="1096.699219" xlink:href="#DejaVuSans-80"/>
      <use x="1157.001953" xlink:href="#DejaVuSans-77"/>
      <use x="1243.28125" xlink:href="#DejaVuSans-49"/>
      <use x="1306.904297" xlink:href="#DejaVuSans-48"/>
     </g>
    </g>
   </g>
  </g>
 </g>
 <defs>
  <clipPath id="p94315988cf">
   <rect height="217.44" width="334.8" x="54" y="34.56"/>
  </clipPath>
 </defs>
</svg>
